<?xml version="1.0" encoding="UTF-8"?>
<svg xmlns="http://www.w3.org/2000/svg" xmlns:xlink="http://www.w3.org/1999/xlink" width="80px" height="80px" viewBox="0 0 80 80" version="1.1">
<g id="surface1">
<path style="fill:none;stroke-width:4;stroke-linecap:round;stroke-linejoin:round;stroke:rgb(0%,0%,0%);stroke-opacity:1;stroke-miterlimit:4;" d="M 93.999023 99.125732 L 93.999023 90.000977 C 93.999023 79.921631 85.828857 71.751465 75.749512 71.751465 L 39.250488 71.751465 C 29.171143 71.751465 21.000977 79.921631 21.000977 90.000977 L 21.000977 99.125732 M 57.5 53.501953 C 67.579346 53.501953 75.749512 45.331787 75.749512 35.252441 C 75.749512 25.16748 67.579346 16.997314 57.5 16.997314 C 47.420654 16.997314 39.250488 25.16748 39.250488 35.252441 C 39.250488 45.331787 47.420654 53.501953 57.5 53.501953 Z M 57.5 53.501953 " transform="matrix(0.695652,0,0,0.695652,0,0)"/>
<path style="fill:none;stroke-width:3;stroke-linecap:butt;stroke-linejoin:miter;stroke:rgb(0%,0%,0%);stroke-opacity:1;stroke-miterlimit:4;" d="M 113.500732 57.5 C 113.500732 88.428711 88.428711 113.500732 57.5 113.500732 C 26.571289 113.500732 1.499268 88.428711 1.499268 57.5 C 1.499268 26.571289 26.571289 1.499268 57.5 1.499268 C 88.428711 1.499268 113.500732 26.571289 113.500732 57.5 Z M 113.500732 57.5 " transform="matrix(0.695652,0,0,0.695652,0,0)"/>
</g>
</svg>
